<svg width="158" height="83" viewBox="0 0 158 83" fill="none" xmlns="http://www.w3.org/2000/svg">
<path d="M95.2074 52.8388L90.8847 45.3236H88.5325V52.8388H85.4512V34.0508H91.9376C93.3768 34.0508 94.5988 34.3068 95.5986 34.8091C96.5984 35.3114 97.347 35.9875 97.8445 36.8376C98.3371 37.6828 98.5883 38.6295 98.5883 39.6727C98.5883 40.8995 98.2308 42.0103 97.5208 43.0149C96.806 44.0147 95.7145 44.6909 94.2365 45.0531L98.8829 52.8388H95.2074ZM88.5325 42.8652H91.9376C93.0919 42.8652 93.9613 42.5754 94.5457 42.0006C95.1301 41.4211 95.4247 40.6483 95.4247 39.6727C95.4247 38.7019 95.1349 37.9388 94.5602 37.3882C93.9806 36.8424 93.1064 36.5671 91.9376 36.5671H88.5325V42.8652Z" fill="white"/>
<path d="M108.992 53.0803C107.587 53.0803 106.317 52.7615 105.182 52.124C104.047 51.4816 103.158 50.5833 102.506 49.4193C101.859 48.2553 101.535 46.9078 101.535 45.3767C101.535 43.865 101.868 42.5223 102.535 41.3487C103.201 40.1798 104.109 39.2767 105.264 38.6488C106.418 38.0161 107.708 37.7021 109.128 37.7021C110.552 37.7021 111.842 38.0161 112.996 38.6488C114.151 39.2767 115.059 40.1798 115.725 41.3487C116.392 42.5223 116.725 43.865 116.725 45.3767C116.725 46.8933 116.382 48.236 115.696 49.4048C115.015 50.5785 114.083 51.4816 112.9 52.124C111.721 52.7615 110.417 53.0803 108.992 53.0803ZM108.992 50.4046C109.789 50.4046 110.533 50.2162 111.224 49.8395C111.919 49.458 112.48 48.8928 112.914 48.1346C113.344 47.3763 113.561 46.4586 113.561 45.3767C113.561 44.2949 113.354 43.382 112.943 42.6334C112.528 41.8848 111.977 41.3245 111.291 40.943C110.606 40.5663 109.867 40.3779 109.074 40.3779C108.282 40.3779 107.548 40.5663 106.872 40.943C106.196 41.3245 105.66 41.8848 105.264 42.6334C104.868 43.382 104.67 44.2949 104.67 45.3767C104.67 46.9802 105.08 48.2215 105.901 49.0957C106.717 49.9699 107.751 50.4046 108.992 50.4046Z" fill="white"/>
<path d="M122.864 40.1608C123.385 39.4412 124.1 38.852 125.008 38.3931C125.921 37.9295 126.935 37.7024 128.051 37.7024C129.365 37.7024 130.557 38.0164 131.62 38.6491C132.683 39.277 133.518 40.1753 134.132 41.3393C134.745 42.4985 135.054 43.8267 135.054 45.3239C135.054 46.8212 134.745 48.159 134.132 49.3375C133.518 50.5208 132.678 51.4384 131.606 52.0953C130.533 52.7521 129.35 53.0806 128.051 53.0806C126.897 53.0806 125.877 52.8584 124.984 52.4044C124.09 51.9552 123.385 51.3805 122.864 50.6753V52.8391H119.777V32.834H122.864V40.1608ZM131.915 45.3239C131.915 44.2952 131.707 43.4113 131.282 42.6627C130.857 41.914 130.302 41.3441 129.606 40.9577C128.911 40.5714 128.167 40.3782 127.375 40.3782C126.602 40.3782 125.868 40.5762 125.172 40.9722C124.477 41.3683 123.921 41.9478 123.496 42.7013C123.071 43.4596 122.864 44.3531 122.864 45.377C122.864 46.4058 123.071 47.3041 123.496 48.0672C123.921 48.8352 124.477 49.4147 125.172 49.8108C125.868 50.2068 126.602 50.4049 127.375 50.4049C128.167 50.4049 128.911 50.202 129.606 49.7963C130.302 49.3906 130.857 48.8014 131.282 48.0286C131.707 47.251 131.915 46.3527 131.915 45.3239Z" fill="white"/>
<path d="M139.677 35.9733C139.116 35.9733 138.648 35.7801 138.271 35.4034C137.89 35.0267 137.701 34.5582 137.701 33.9979C137.701 33.4377 137.89 32.9692 138.271 32.5924C138.648 32.2157 139.116 32.0273 139.677 32.0273C140.218 32.0273 140.676 32.2157 141.053 32.5924C141.43 32.9692 141.623 33.4377 141.623 33.9979C141.623 34.5582 141.43 35.0267 141.053 35.4034C140.676 35.7801 140.218 35.9733 139.677 35.9733ZM141.188 37.9439V52.839H138.107V37.9439H141.188Z" fill="white"/>
<path d="M151.137 45.406L158 52.8391H153.836L148.326 46.4348V52.8391H145.244V32.834H148.326V44.4594L153.73 37.9439H158L151.137 45.406Z" fill="white"/>
<path fill-rule="evenodd" clip-rule="evenodd" d="M43.329 42.0422C43.329 41.5512 43.0673 41.0975 42.6422 40.852C42.217 40.6066 41.6935 40.6066 41.2673 40.852L39.0653 42.1238C38.1774 42.6362 37.6309 43.5838 37.6309 44.6088V47.148C37.6309 47.6391 37.8926 48.0935 38.3177 48.3385C38.7439 48.5846 39.2674 48.5835 39.6925 48.3385L41.8945 47.0663C42.7825 46.5543 43.329 45.6067 43.329 44.5816V42.0422Z" fill="white"/>
<path fill-rule="evenodd" clip-rule="evenodd" d="M42.0708 61.48C42.0708 61.2077 41.9256 60.956 41.6898 60.8199C41.454 60.6837 41.1636 60.6837 40.9272 60.8199L39.7058 61.5253C39.2133 61.8095 38.9102 62.3351 38.9102 62.9037V64.3121C38.9102 64.5844 39.0553 64.8365 39.2911 64.9724C39.5275 65.1089 39.8179 65.1083 40.0537 64.9724L41.2751 64.2668C41.7676 63.9828 42.0708 63.4572 42.0708 62.8886V61.48Z" fill="white"/>
<path fill-rule="evenodd" clip-rule="evenodd" d="M49.9985 56.9019C49.9985 56.6295 49.8533 56.3779 49.6175 56.2418C49.3817 56.1056 49.0913 56.1056 48.8549 56.2418L47.6336 56.9472C47.1411 57.2313 46.8379 57.757 46.8379 58.3255V59.7339C46.8379 60.0063 46.9831 60.2584 47.2189 60.3943C47.4553 60.5308 47.7457 60.5302 47.9814 60.3943L49.2028 59.6886C49.6953 59.4046 49.9985 58.879 49.9985 58.3104V56.9019Z" fill="white"/>
<path fill-rule="evenodd" clip-rule="evenodd" d="M57.938 52.311C57.938 52.0387 57.7928 51.7871 57.557 51.6509C57.3212 51.5148 57.0308 51.5148 56.7944 51.6509L55.573 52.3563C55.0805 52.6405 54.7773 53.1661 54.7773 53.7347V55.1431C54.7773 55.4155 54.9225 55.6676 55.1583 55.8035C55.3947 55.9399 55.6851 55.9394 55.9209 55.8035L57.1423 55.0978C57.6348 54.8138 57.938 54.2882 57.938 53.7196V52.311Z" fill="white"/>
<path fill-rule="evenodd" clip-rule="evenodd" d="M57.938 43.189C57.938 42.9166 57.7928 42.665 57.557 42.5289C57.3212 42.3927 57.0308 42.3927 56.7944 42.5289L55.573 43.2343C55.0805 43.5185 54.7773 44.0441 54.7773 44.6127V46.021C54.7773 46.2934 54.9225 46.5455 55.1583 46.6814C55.3947 46.8179 55.6851 46.8173 55.9209 46.6814L57.1423 45.9757C57.6348 45.6917 57.938 45.1661 57.938 44.5976V43.189Z" fill="white"/>
<path fill-rule="evenodd" clip-rule="evenodd" d="M57.938 34.021C57.938 33.7487 57.7928 33.497 57.557 33.3609C57.3212 33.2248 57.0308 33.2248 56.7944 33.3609L55.573 34.0663C55.0805 34.3505 54.7773 34.8761 54.7773 35.4447V36.8531C54.7773 37.1255 54.9225 37.3775 55.1583 37.5134C55.3947 37.6499 55.6851 37.6493 55.9209 37.5134L57.1423 36.8078C57.6348 36.5238 57.938 35.9982 57.938 35.4296V34.021Z" fill="white"/>
<path fill-rule="evenodd" clip-rule="evenodd" d="M41.1825 80.581C41.1825 80.4596 41.1178 80.3474 41.0127 80.2867C40.9076 80.226 40.7781 80.226 40.6727 80.2867L40.1282 80.6012C39.9086 80.7279 39.7734 80.9623 39.7734 81.2157V81.8437C39.7734 81.9651 39.8382 82.0775 39.9433 82.1381C40.0487 82.1989 40.1781 82.1986 40.2833 82.1381L40.8278 81.8235C41.0474 81.6968 41.1825 81.4625 41.1825 81.209V80.581Z" fill="white"/>
<path fill-rule="evenodd" clip-rule="evenodd" d="M49.1239 76.0029C49.1239 75.8815 49.0592 75.7693 48.9541 75.7086C48.849 75.6479 48.7195 75.6479 48.6141 75.7086L48.0696 76.0231C47.85 76.1498 47.7148 76.3841 47.7148 76.6376V77.2655C47.7148 77.387 47.7796 77.4993 47.8847 77.5599C47.9901 77.6208 48.1196 77.6205 48.2247 77.5599L48.7692 77.2453C48.9888 77.1187 49.1239 76.8844 49.1239 76.6309V76.0029Z" fill="white"/>
<path fill-rule="evenodd" clip-rule="evenodd" d="M65.0028 66.834C65.0028 66.7125 64.9381 66.6004 64.833 66.5397C64.7279 66.479 64.5984 66.479 64.493 66.5397L63.9485 66.8542C63.7289 66.9809 63.5938 67.2152 63.5938 67.4687V68.0966C63.5938 68.218 63.6585 68.3304 63.7636 68.391C63.869 68.4518 63.9985 68.4516 64.1036 68.391L64.6481 68.0764C64.8677 67.9498 65.0028 67.7154 65.0028 67.4619V66.834Z" fill="white"/>
<path fill-rule="evenodd" clip-rule="evenodd" d="M72.9443 62.2441C72.9443 62.1227 72.8795 62.0105 72.7744 61.9498C72.6693 61.8891 72.5398 61.8891 72.4344 61.9498L71.8899 62.2643C71.6703 62.391 71.5352 62.6253 71.5352 62.8788V63.5067C71.5352 63.6282 71.5999 63.7406 71.705 63.8011C71.8104 63.862 71.9399 63.8617 72.045 63.8011L72.5895 63.4865C72.8091 63.3599 72.9443 63.1256 72.9443 62.8721V62.2441Z" fill="white"/>
<path fill-rule="evenodd" clip-rule="evenodd" d="M72.9443 53.4697C72.9443 53.3483 72.8795 53.2361 72.7744 53.1754C72.6693 53.1147 72.5398 53.1147 72.4344 53.1754L71.8899 53.4899C71.6703 53.6166 71.5352 53.8509 71.5352 54.1044V54.7323C71.5352 54.8538 71.5999 54.9661 71.705 55.0267C71.8104 55.0876 71.9399 55.0873 72.045 55.0267L72.5895 54.7121C72.8091 54.5855 72.9443 54.3512 72.9443 54.0977V53.4697Z" fill="white"/>
<path fill-rule="evenodd" clip-rule="evenodd" d="M72.9443 34.831C72.9443 34.7096 72.8795 34.5974 72.7744 34.5367C72.6693 34.476 72.5398 34.476 72.4344 34.5367L71.8899 34.8512C71.6703 34.9779 71.5352 35.2123 71.5352 35.4657V36.0937C71.5352 36.2151 71.5999 36.3275 71.705 36.3881C71.8104 36.4489 71.9399 36.4486 72.045 36.3881L72.5895 36.0735C72.8091 35.9468 72.9443 35.7125 72.9443 35.459V34.831Z" fill="white"/>
<path fill-rule="evenodd" clip-rule="evenodd" d="M72.9443 25.6279C72.9443 25.5065 72.8795 25.3943 72.7744 25.3336C72.6693 25.2729 72.5398 25.2729 72.4344 25.3336L71.8899 25.6481C71.6703 25.7748 71.5352 26.0091 71.5352 26.2626V26.8905C71.5352 27.012 71.5999 27.1243 71.705 27.1849C71.8104 27.2458 71.9399 27.2455 72.045 27.1849L72.5895 26.8703C72.8091 26.7437 72.9443 26.5094 72.9443 26.2559V25.6279Z" fill="white"/>
<path fill-rule="evenodd" clip-rule="evenodd" d="M42.5638 51.8961C42.5638 51.5372 42.3724 51.2056 42.0617 51.0262C41.7509 50.8467 41.3682 50.8467 41.0567 51.0262L39.447 51.9558C38.798 52.3303 38.3984 53.023 38.3984 53.7724V55.6285C38.3984 55.9875 38.5898 56.3197 38.9005 56.4988C39.2121 56.6786 39.5948 56.6779 39.9055 56.4988L41.5152 55.5688C42.1643 55.1945 42.5638 54.5018 42.5638 53.7525V51.8961Z" fill="white"/>
<path fill-rule="evenodd" clip-rule="evenodd" d="M50.5032 38.1491C50.5032 37.7902 50.3119 37.4585 50.0011 37.2791C49.6904 37.0997 49.3077 37.0997 48.9962 37.2791L47.3865 38.2088C46.7374 38.5833 46.3379 39.276 46.3379 40.0253V41.8814C46.3379 42.2404 46.5292 42.5726 46.84 42.7517C47.1515 42.9316 47.5342 42.9308 47.845 42.7517L49.4546 41.8217C50.1037 41.4474 50.5032 40.7547 50.5032 40.0054V38.1491Z" fill="white"/>
<path fill-rule="evenodd" clip-rule="evenodd" d="M41.4839 71.1862C41.4839 71.0133 41.3917 70.8535 41.2419 70.767C41.0922 70.6805 40.9078 70.6805 40.7576 70.767L39.9819 71.215C39.6691 71.3955 39.4766 71.7293 39.4766 72.0904V72.9849C39.4766 73.1579 39.5688 73.318 39.7185 73.4043C39.8687 73.491 40.0531 73.4906 40.2029 73.4043L40.9786 72.9562C41.2914 72.7758 41.4839 72.442 41.4839 72.0809V71.1862Z" fill="white"/>
<path fill-rule="evenodd" clip-rule="evenodd" d="M49.4234 66.5964C49.4234 66.4234 49.3312 66.2636 49.1814 66.1772C49.0316 66.0907 48.8472 66.0907 48.6971 66.1772L47.9214 66.6252C47.6086 66.8057 47.416 67.1395 47.416 67.5006V68.3951C47.416 68.5681 47.5082 68.7282 47.658 68.8145C47.8081 68.9012 47.9925 68.9008 48.1423 68.8145L48.918 68.3663C49.2308 68.1859 49.4234 67.8521 49.4234 67.491V66.5964Z" fill="white"/>
<path fill-rule="evenodd" clip-rule="evenodd" d="M57.3628 62.0066C57.3628 61.8336 57.2706 61.6738 57.1209 61.5873C56.9711 61.5008 56.7867 61.5008 56.6365 61.5873L55.8608 62.0353C55.548 62.2158 55.3555 62.5496 55.3555 62.9108V63.8052C55.3555 63.9782 55.4477 64.1383 55.5974 64.2246C55.7476 64.3113 55.932 64.311 56.0818 64.2246L56.8575 63.7765C57.1703 63.5961 57.3628 63.2623 57.3628 62.9012V62.0066Z" fill="white"/>
<path fill-rule="evenodd" clip-rule="evenodd" d="M65.2691 57.4734C65.2691 57.3004 65.1769 57.1406 65.0271 57.0541C64.8773 56.9676 64.6929 56.9676 64.5428 57.0541L63.7671 57.5021C63.4543 57.6826 63.2617 58.0164 63.2617 58.3776V59.272C63.2617 59.445 63.3539 59.6051 63.5037 59.6914C63.6538 59.7781 63.8383 59.7778 63.988 59.6914L64.7637 59.2433C65.0765 59.0629 65.2691 58.7291 65.2691 58.368V57.4734Z" fill="white"/>
<path fill-rule="evenodd" clip-rule="evenodd" d="M65.3023 47.9109C65.3023 47.7379 65.2101 47.5781 65.0603 47.4916C64.9105 47.4051 64.7261 47.4051 64.576 47.4916L63.8003 47.9396C63.4875 48.1201 63.2949 48.4539 63.2949 48.8151V49.7095C63.2949 49.8825 63.3871 50.0426 63.5369 50.1289C63.687 50.2156 63.8715 50.2153 64.0212 50.1289L64.7969 49.6808C65.1097 49.5004 65.3023 49.1666 65.3023 48.8055V47.9109Z" fill="white"/>
<path fill-rule="evenodd" clip-rule="evenodd" d="M65.3023 38.3484C65.3023 38.1754 65.2101 38.0156 65.0603 37.9291C64.9105 37.8426 64.7261 37.8426 64.576 37.9291L63.8003 38.3771C63.4875 38.5576 63.2949 38.8914 63.2949 39.2526V40.147C63.2949 40.32 63.3871 40.4801 63.5369 40.5664C63.687 40.6531 63.8715 40.6528 64.0212 40.5664L64.7969 40.1183C65.1097 39.9379 65.3023 39.6041 65.3023 39.243V38.3484Z" fill="white"/>
<path fill-rule="evenodd" clip-rule="evenodd" d="M65.3023 29.945C65.3023 29.7721 65.2101 29.6122 65.0603 29.5258C64.9105 29.4393 64.7261 29.4393 64.576 29.5258L63.8003 29.9738C63.4875 30.1543 63.2949 30.4881 63.2949 30.8492V31.7437C63.2949 31.9167 63.3871 32.0768 63.5369 32.1631C63.687 32.2498 63.8715 32.2494 64.0212 32.1631L64.7969 31.715C65.1097 31.5346 65.3023 31.2008 65.3023 30.8396V29.945Z" fill="white"/>
<path fill-rule="evenodd" clip-rule="evenodd" d="M29.6026 41.9025C29.6026 41.4115 29.8644 40.9578 30.2895 40.7124C30.7146 40.467 31.2381 40.467 31.6643 40.7124L33.8663 41.9842C34.7542 42.4965 35.3008 43.4441 35.3008 44.4692V47.0083C35.3008 47.4994 35.039 47.9539 34.6139 48.1989C34.1877 48.4449 33.6642 48.4439 33.2391 48.1989L31.0371 46.9267C30.1492 46.4147 29.6026 45.4671 29.6026 44.442V41.9025Z" fill="white"/>
<path fill-rule="evenodd" clip-rule="evenodd" d="M30.8726 61.3413C30.8726 61.069 31.0178 60.8173 31.2536 60.6812C31.4894 60.5451 31.7798 60.5451 32.0161 60.6812L33.2375 61.3866C33.73 61.6708 34.0332 62.1964 34.0332 62.765V64.1734C34.0332 64.4458 33.888 64.6978 33.6522 64.8337C33.4158 64.9702 33.1254 64.9696 32.8896 64.8337L31.6683 64.1281C31.1758 63.8441 30.8726 63.3185 30.8726 62.7499V61.3413Z" fill="white"/>
<path fill-rule="evenodd" clip-rule="evenodd" d="M22.9331 56.7622C22.9331 56.4899 23.0783 56.2382 23.3141 56.1021C23.5499 55.966 23.8403 55.966 24.0767 56.1021L25.2981 56.8075C25.7906 57.0917 26.0938 57.6173 26.0938 58.1859V59.5943C26.0938 59.8667 25.9486 60.1187 25.7128 60.2546C25.4764 60.3911 25.186 60.3905 24.9502 60.2546L23.7288 59.549C23.2363 59.265 22.9331 58.7394 22.9331 58.1708V56.7622Z" fill="white"/>
<path fill-rule="evenodd" clip-rule="evenodd" d="M14.9937 52.1841C14.9937 51.9118 15.1389 51.6601 15.3747 51.524C15.6105 51.3878 15.9009 51.3878 16.1372 51.524L17.3586 52.2294C17.8511 52.5136 18.1543 53.0392 18.1543 53.6078V55.0162C18.1543 55.2885 18.0091 55.5406 17.7733 55.6765C17.5369 55.813 17.2465 55.8124 17.0107 55.6765L15.7894 54.9709C15.2968 54.6869 14.9937 54.1613 14.9937 53.5927V52.1841Z" fill="white"/>
<path fill-rule="evenodd" clip-rule="evenodd" d="M14.9937 43.0503C14.9937 42.778 15.1389 42.5263 15.3747 42.3902C15.6105 42.2541 15.9009 42.2541 16.1372 42.3902L17.3586 43.0956C17.8511 43.3798 18.1543 43.9054 18.1543 44.474V45.8824C18.1543 46.1548 18.0091 46.4068 17.7733 46.5427C17.5369 46.6792 17.2465 46.6786 17.0107 46.5427L15.7894 45.8371C15.2968 45.5531 14.9937 45.0275 14.9937 44.4589V43.0503Z" fill="white"/>
<path fill-rule="evenodd" clip-rule="evenodd" d="M14.9937 33.8814C14.9937 33.609 15.1389 33.3574 15.3747 33.2212C15.6105 33.0851 15.9009 33.0851 16.1372 33.2212L17.3586 33.9267C17.8511 34.2108 18.1543 34.7364 18.1543 35.305V36.7134C18.1543 36.9858 18.0091 37.2379 17.7733 37.3738C17.5369 37.5103 17.2465 37.5097 17.0107 37.3738L15.7894 36.6681C15.2968 36.3841 14.9937 35.8585 14.9937 35.2899V33.8814Z" fill="white"/>
<path fill-rule="evenodd" clip-rule="evenodd" d="M31.7491 80.4541C31.7491 80.3327 31.8138 80.2205 31.919 80.1598C32.0241 80.0991 32.1536 80.0991 32.2589 80.1598L32.8035 80.4743C33.023 80.601 33.1582 80.8353 33.1582 81.0888V81.7167C33.1582 81.8381 33.0935 81.9505 32.9883 82.0111C32.883 82.072 32.7535 82.0717 32.6484 82.0111L32.1038 81.6965C31.8843 81.5699 31.7491 81.3356 31.7491 81.0821V80.4541Z" fill="white"/>
<path fill-rule="evenodd" clip-rule="evenodd" d="M23.8077 75.8633C23.8077 75.7418 23.8724 75.6297 23.9776 75.569C24.0827 75.5083 24.2121 75.5083 24.3175 75.569L24.8621 75.8835C25.0816 76.0101 25.2168 76.2445 25.2168 76.498V77.1259C25.2168 77.2473 25.1521 77.3597 25.0469 77.4203C24.9416 77.4811 24.8121 77.4809 24.707 77.4203L24.1624 77.1057C23.9429 76.9791 23.8077 76.7447 23.8077 76.4912V75.8633Z" fill="white"/>
<path fill-rule="evenodd" clip-rule="evenodd" d="M7.92879 66.6953C7.92879 66.5739 7.99352 66.4617 8.09865 66.401C8.20378 66.3403 8.33324 66.3403 8.43863 66.401L8.98316 66.7155C9.20273 66.8422 9.33789 67.0765 9.33789 67.33V67.9579C9.33789 68.0793 9.27316 68.1917 9.16803 68.2523C9.06265 68.3132 8.93318 68.3129 8.82806 68.2523L8.28353 67.9377C8.06395 67.8111 7.92879 67.5768 7.92879 67.3233V66.6953Z" fill="white"/>
<path fill-rule="evenodd" clip-rule="evenodd" d="M-0.000894427 62.1045C-0.000894427 61.9831 0.0638366 61.8709 0.168962 61.8102C0.274088 61.7495 0.403553 61.7495 0.508938 61.8102L1.05347 62.1247C1.27304 62.2514 1.4082 62.4857 1.4082 62.7392V63.3671C1.4082 63.4885 1.34347 63.6009 1.23835 63.6615C1.13296 63.7223 1.0035 63.7221 0.898371 63.6615L0.353839 63.3469C0.134266 63.2203 -0.000894427 62.9859 -0.000894427 62.7325V62.1045Z" fill="white"/>
<path fill-rule="evenodd" clip-rule="evenodd" d="M-0.000894427 53.3301C-0.000894427 53.2086 0.0638366 53.0964 0.168962 53.0358C0.274088 52.9751 0.403553 52.9751 0.508938 53.0358L1.05347 53.3503C1.27304 53.4769 1.4082 53.7113 1.4082 53.9648V54.5927C1.4082 54.7141 1.34347 54.8265 1.23835 54.8871C1.13296 54.9479 1.0035 54.9477 0.898371 54.8871L0.353839 54.5725C0.134266 54.4459 -0.000894427 54.2115 -0.000894427 53.958V53.3301Z" fill="white"/>
<path fill-rule="evenodd" clip-rule="evenodd" d="M-0.000894427 34.6914C-0.000894427 34.57 0.0638366 34.4578 0.168962 34.3971C0.274088 34.3364 0.403553 34.3364 0.508938 34.3971L1.05347 34.7116C1.27304 34.8383 1.4082 35.0726 1.4082 35.3261V35.954C1.4082 36.0754 1.34347 36.1878 1.23835 36.2484C1.13296 36.3093 1.0035 36.309 0.898371 36.2484L0.353839 35.9338C0.134266 35.8072 -0.000894427 35.5729 -0.000894427 35.3194V34.6914Z" fill="white"/>
<path fill-rule="evenodd" clip-rule="evenodd" d="M-0.000894427 25.4883C-0.000894427 25.3668 0.0638366 25.2547 0.168962 25.194C0.274088 25.1333 0.403553 25.1333 0.508938 25.194L1.05347 25.5085C1.27304 25.6351 1.4082 25.8695 1.4082 26.123V26.7509C1.4082 26.8723 1.34347 26.9847 1.23835 27.0453C1.13296 27.1061 1.0035 27.1059 0.898371 27.0453L0.353839 26.7307C0.134266 26.6041 -0.000894427 26.3697 -0.000894427 26.1162V25.4883Z" fill="white"/>
<path fill-rule="evenodd" clip-rule="evenodd" d="M30.3678 51.7692C30.3678 51.4103 30.5592 51.0786 30.87 50.8992C31.1807 50.7198 31.5634 50.7198 31.8749 50.8992L33.4846 51.8289C34.1337 52.2034 34.5332 52.8961 34.5332 53.6454V55.5015C34.5332 55.8605 34.3419 56.1927 34.0311 56.3718C33.7196 56.5517 33.3369 56.5509 33.0261 56.3718L31.4165 55.4418C30.7674 55.0676 30.3678 54.3749 30.3678 53.6255V51.7692Z" fill="white"/>
<path fill-rule="evenodd" clip-rule="evenodd" d="M22.4284 38.0104C22.4284 37.6515 22.6197 37.3198 22.9305 37.1404C23.2413 36.961 23.624 36.961 23.9355 37.1404L25.5451 38.0701C26.1942 38.4446 26.5938 39.1373 26.5938 39.8866V41.7427C26.5938 42.1017 26.4024 42.4339 26.0916 42.613C25.7801 42.7929 25.3974 42.7921 25.0867 42.613L23.477 41.6831C22.8279 41.3088 22.4284 40.6161 22.4284 39.8667V38.0104Z" fill="white"/>
<path fill-rule="evenodd" clip-rule="evenodd" d="M31.4497 71.0476C31.4497 70.8746 31.5419 70.7148 31.6916 70.6283C31.8414 70.5419 32.0258 70.5419 32.176 70.6283L32.9517 71.0763C33.2645 71.2568 33.457 71.5907 33.457 71.9518V72.8463C33.457 73.0193 33.3648 73.1793 33.2151 73.2657C33.0649 73.3523 32.8805 73.352 32.7307 73.2657L31.955 72.8175C31.6422 72.6371 31.4497 72.3033 31.4497 71.9422V71.0476Z" fill="white"/>
<path fill-rule="evenodd" clip-rule="evenodd" d="M23.5083 66.4568C23.5083 66.2838 23.6005 66.124 23.7502 66.0375C23.9 65.951 24.0844 65.951 24.2346 66.0375L25.0103 66.4855C25.3231 66.666 25.5156 66.9998 25.5156 67.361V68.2554C25.5156 68.4284 25.4234 68.5885 25.2737 68.6748C25.1235 68.7615 24.9391 68.7612 24.7893 68.6748L24.0136 68.2267C23.7008 68.0463 23.5083 67.7125 23.5083 67.3514V66.4568Z" fill="white"/>
<path fill-rule="evenodd" clip-rule="evenodd" d="M15.5688 61.8786C15.5688 61.7057 15.661 61.5458 15.8108 61.4594C15.9605 61.3729 16.145 61.3729 16.2951 61.4594L17.0708 61.9074C17.3836 62.0879 17.5762 62.4217 17.5762 62.7828V63.6773C17.5762 63.8503 17.484 64.0104 17.3342 64.0967C17.1841 64.1834 16.9996 64.183 16.8499 64.0967L16.0742 63.6486C15.7614 63.4682 15.5688 63.1344 15.5688 62.7732V61.8786Z" fill="white"/>
<path fill-rule="evenodd" clip-rule="evenodd" d="M7.66452 57.3347C7.66452 57.1617 7.75673 57.0019 7.90649 56.9154C8.05625 56.829 8.24068 56.829 8.39081 56.9154L9.16653 57.3635C9.47933 57.5439 9.67188 57.8778 9.67188 58.2389V59.1334C9.67188 59.3064 9.57966 59.4665 9.4299 59.5528C9.27977 59.6395 9.09534 59.6391 8.94558 59.5528L8.16986 59.1046C7.85707 58.9242 7.66452 58.5904 7.66452 58.2293V57.3347Z" fill="white"/>
<path fill-rule="evenodd" clip-rule="evenodd" d="M7.62936 47.7722C7.62936 47.5992 7.72158 47.4394 7.87134 47.3529C8.0211 47.2665 8.20553 47.2665 8.35566 47.3529L9.13138 47.801C9.44417 47.9814 9.63672 48.3153 9.63672 48.6764V49.5709C9.63672 49.7439 9.54451 49.904 9.39475 49.9903C9.24462 50.077 9.06019 50.0766 8.91043 49.9903L8.13471 49.5421C7.82191 49.3617 7.62936 49.0279 7.62936 48.6668V47.7722Z" fill="white"/>
<path fill-rule="evenodd" clip-rule="evenodd" d="M7.62936 38.2204C7.62936 38.0475 7.72158 37.8876 7.87134 37.8012C8.0211 37.7147 8.20553 37.7147 8.35566 37.8012L9.13138 38.2492C9.44417 38.4297 9.63672 38.7635 9.63672 39.1246V40.0191C9.63672 40.1921 9.54451 40.3522 9.39475 40.4385C9.24462 40.5252 9.06019 40.5248 8.91043 40.4385L8.13471 39.9903C7.82191 39.81 7.62936 39.4761 7.62936 39.115V38.2204Z" fill="white"/>
<path fill-rule="evenodd" clip-rule="evenodd" d="M7.62936 29.8171C7.62936 29.6441 7.72158 29.4843 7.87134 29.3979C8.0211 29.3114 8.20553 29.3114 8.35566 29.3979L9.13138 29.8459C9.44417 30.0264 9.63672 30.3602 9.63672 30.7213V31.6158C9.63672 31.7888 9.54451 31.9489 9.39475 32.0352C9.24462 32.1219 9.06019 32.1215 8.91043 32.0352L8.13471 31.587C7.82191 31.4067 7.62936 31.0728 7.62936 30.7117V29.8171Z" fill="white"/>
<path fill-rule="evenodd" clip-rule="evenodd" d="M32.8918 36.3537C32.4666 36.5992 32.2045 37.0528 32.2045 37.5436C32.2046 38.0345 32.4663 38.4879 32.892 38.7343L35.0943 40.0054C35.982 40.5182 37.0759 40.5177 37.9637 40.0051L40.1626 38.7356C40.5879 38.49 40.8506 38.0361 40.8502 37.5455C40.8502 37.0534 40.5876 36.6005 40.1628 36.3548L37.9601 35.0839C37.0727 34.571 35.9788 34.5715 35.091 35.084L32.8918 36.3537Z" fill="white"/>
<path fill-rule="evenodd" clip-rule="evenodd" d="M50.7043 27.8516C50.5094 27.9642 50.3893 28.1721 50.3893 28.3971C50.3893 28.6221 50.5093 28.8299 50.7044 28.9429L51.714 29.5255C52.1209 29.7606 52.6224 29.7604 53.0293 29.5254L54.0374 28.9435C54.2323 28.8309 54.3527 28.6228 54.3526 28.3979C54.3526 28.1723 54.2321 27.9647 54.0374 27.8521L53.0277 27.2695C52.6209 27.0344 52.1194 27.0346 51.7125 27.2696L50.7043 27.8516Z" fill="white"/>
<path fill-rule="evenodd" clip-rule="evenodd" d="M42.7649 23.2618C42.57 23.3743 42.4499 23.5822 42.4499 23.8072C42.4499 24.0323 42.5699 24.2401 42.765 24.353L43.7746 24.9357C44.1815 25.1708 44.6829 25.1706 45.0899 24.9356L46.0979 24.3536C46.2929 24.2411 46.4133 24.033 46.4131 23.8081C46.4131 23.5825 46.2927 23.3749 46.098 23.2623L45.0882 22.6797C44.6815 22.4446 44.18 22.4448 43.773 22.6797L42.7649 23.2618Z" fill="white"/>
<path fill-rule="evenodd" clip-rule="evenodd" d="M34.8235 18.6827C34.6286 18.7952 34.5085 19.0031 34.5085 19.2281C34.5085 19.4532 34.6285 19.661 34.8236 19.7739L35.8332 20.3566C36.2401 20.5917 36.7415 20.5915 37.1485 20.3565L38.1565 19.7745C38.3515 19.662 38.4719 19.4539 38.4717 19.229C38.4717 19.0034 38.3513 18.7958 38.1566 18.6832L37.1468 18.1006C36.74 17.8655 36.2386 17.8657 35.8316 18.1006L34.8235 18.6827Z" fill="white"/>
<path fill-rule="evenodd" clip-rule="evenodd" d="M26.9192 23.2501C26.7243 23.3626 26.6042 23.5705 26.6042 23.7955C26.6042 24.0205 26.7242 24.2284 26.9193 24.3413L27.9289 24.924C28.3358 25.1591 28.8372 25.1588 29.2442 24.9239L30.2522 24.3419C30.4472 24.2293 30.5676 24.0213 30.5674 23.7964C30.5674 23.5708 30.447 23.3632 30.2523 23.2506L29.2425 22.668C28.8358 22.4328 28.3343 22.433 27.9273 22.668L26.9192 23.2501Z" fill="white"/>
<path fill-rule="evenodd" clip-rule="evenodd" d="M18.9797 27.8282C18.7848 27.9407 18.6647 28.1486 18.6647 28.3736C18.6647 28.5987 18.7847 28.8065 18.9798 28.9194L19.9894 29.5021C20.3963 29.7372 20.8978 29.737 21.3047 29.502L22.3127 28.92C22.5077 28.8075 22.6281 28.5994 22.6279 28.3745C22.628 28.1489 22.5075 27.9413 22.3128 27.8287L21.3031 27.2461C20.8963 27.011 20.3948 27.0112 19.9879 27.2461L18.9797 27.8282Z" fill="white"/>
<path fill-rule="evenodd" clip-rule="evenodd" d="M67.491 18.9878C67.4041 19.0379 67.3506 19.1306 67.3506 19.231C67.3506 19.3313 67.4041 19.4239 67.4911 19.4743L67.9412 19.7341C68.1226 19.8389 68.3461 19.8388 68.5276 19.734L68.977 19.4746C69.0639 19.4244 69.1176 19.3316 69.1175 19.2313C69.1175 19.1308 69.0638 19.0382 68.977 18.988L68.5268 18.7283C68.3455 18.6234 68.1219 18.6235 67.9405 18.7283L67.491 18.9878Z" fill="white"/>
<path fill-rule="evenodd" clip-rule="evenodd" d="M59.5516 14.4096C59.4647 14.4598 59.4111 14.5525 59.4111 14.6528C59.4111 14.7532 59.4646 14.8458 59.5516 14.8962L60.0017 15.1559C60.1831 15.2607 60.4067 15.2606 60.5881 15.1559L61.0375 14.8964C61.1244 14.8462 61.1781 14.7535 61.1781 14.6532C61.1781 14.5526 61.1244 14.4601 61.0376 14.4099L60.5874 14.1501C60.406 14.0453 60.1825 14.0454 60.001 14.1501L59.5516 14.4096Z" fill="white"/>
<path fill-rule="evenodd" clip-rule="evenodd" d="M43.6707 5.2407C43.5838 5.29087 43.5303 5.38356 43.5303 5.48388C43.5303 5.58421 43.5838 5.67687 43.6707 5.72721L44.1209 5.98699C44.3023 6.09179 44.5258 6.0917 44.7073 5.98695L45.1567 5.72748C45.2436 5.6773 45.2973 5.58453 45.2972 5.48426C45.2972 5.38369 45.2435 5.29113 45.1567 5.24093L44.7065 4.98119C44.5252 4.87636 44.3016 4.87645 44.1202 4.9812L43.6707 5.2407Z" fill="white"/>
<path fill-rule="evenodd" clip-rule="evenodd" d="M35.7313 0.662576C35.6444 0.712747 35.5908 0.805438 35.5908 0.905759C35.5908 1.00608 35.6443 1.09874 35.7313 1.14909L36.1814 1.40886C36.3628 1.51367 36.5864 1.51357 36.7678 1.40882L37.2172 1.14936C37.3041 1.09918 37.3578 1.00641 37.3577 0.906131C37.3577 0.805561 37.3041 0.713006 37.2173 0.662802L36.7671 0.403067C36.5857 0.298235 36.3622 0.298329 36.1807 0.403079L35.7313 0.662576Z" fill="white"/>
<path fill-rule="evenodd" clip-rule="evenodd" d="M28.1277 5.05515C28.0408 5.10533 27.9873 5.19802 27.9873 5.29834C27.9873 5.39866 28.0408 5.49132 28.1278 5.54167L28.5779 5.80144C28.7593 5.90624 28.9829 5.90615 29.1643 5.8014L29.6137 5.54193C29.7006 5.49175 29.7543 5.39899 29.7542 5.29871C29.7542 5.19814 29.7005 5.10558 29.6137 5.05538L29.1636 4.79565C28.9822 4.69081 28.7586 4.69091 28.5772 4.79566L28.1277 5.05515Z" fill="white"/>
<path fill-rule="evenodd" clip-rule="evenodd" d="M11.993 14.3745C11.9061 14.4247 11.8525 14.5174 11.8525 14.6177C11.8525 14.718 11.906 14.8107 11.993 14.861L12.4431 15.1208C12.6245 15.2256 12.8481 15.2255 13.0295 15.1207L13.4789 14.8613C13.5659 14.8111 13.6195 14.7183 13.6195 14.618C13.6195 14.5175 13.5658 14.4249 13.479 14.3747L13.0288 14.115C12.8474 14.0101 12.6239 14.0102 12.4424 14.115L11.993 14.3745Z" fill="white"/>
<path fill-rule="evenodd" clip-rule="evenodd" d="M4.01837 18.9761C3.93147 19.0262 3.87792 19.1189 3.87792 19.2192C3.87792 19.3196 3.93142 19.4122 4.0184 19.4626L4.46851 19.7223C4.64992 19.8271 4.87349 19.827 5.05492 19.7223L5.50433 19.4628C5.59124 19.4127 5.64493 19.3199 5.64485 19.2196C5.64485 19.119 5.59117 19.0265 5.50437 18.9763L5.05419 18.7165C4.87283 18.6117 4.64926 18.6118 4.46783 18.7166L4.01837 18.9761Z" fill="white"/>
<path fill-rule="evenodd" clip-rule="evenodd" d="M42.0518 32.1664C41.7693 32.3295 41.5951 32.6309 41.5951 32.9571C41.5951 33.2833 41.7691 33.5846 42.0519 33.7483L43.5155 34.593C44.1054 34.9338 44.8324 34.9335 45.4223 34.5929L46.8836 33.7492C47.1663 33.586 47.3408 33.2844 47.3406 32.9583C47.3406 32.6313 47.166 32.3304 46.8838 32.1671L45.4199 31.3225C44.8302 30.9817 44.1033 30.982 43.5133 31.3226L42.0518 32.1664Z" fill="white"/>
<path fill-rule="evenodd" clip-rule="evenodd" d="M26.1729 32.1664C25.8903 32.3295 25.7162 32.6309 25.7162 32.9571C25.7162 33.2833 25.8902 33.5846 26.173 33.7483L27.6366 34.593C28.2265 34.9338 28.9535 34.9335 29.5434 34.5929L31.0047 33.7492C31.2873 33.586 31.4619 33.2844 31.4617 32.9583C31.4617 32.6313 31.2871 32.3304 31.0048 32.1671L29.541 31.3225C28.9513 30.9817 28.2244 30.982 27.6344 31.3226L26.1729 32.1664Z" fill="white"/>
<path fill-rule="evenodd" clip-rule="evenodd" d="M59.1601 23.4173C59.0239 23.496 58.94 23.6412 58.94 23.7984C58.94 23.9556 59.0238 24.1008 59.1602 24.1797L59.8655 24.5868C60.1498 24.751 60.5001 24.7509 60.7844 24.5867L61.4886 24.1801C61.6248 24.1015 61.709 23.9561 61.7088 23.799C61.7088 23.6414 61.6247 23.4964 61.4887 23.4177L60.7833 23.0107C60.4991 22.8464 60.1487 22.8466 59.8644 23.0107L59.1601 23.4173Z" fill="white"/>
<path fill-rule="evenodd" clip-rule="evenodd" d="M51.2206 18.8392C51.0845 18.9178 51.0006 19.0631 51.0006 19.2203C51.0006 19.3775 51.0844 19.5227 51.2207 19.6016L51.926 20.0087C52.2103 20.1729 52.5606 20.1727 52.845 20.0086L53.5492 19.602C53.6854 19.5234 53.7695 19.378 53.7694 19.2209C53.7694 19.0633 53.6853 18.9182 53.5492 18.8396L52.8438 18.4326C52.5596 18.2683 52.2093 18.2684 51.925 18.4326L51.2206 18.8392Z" fill="white"/>
<path fill-rule="evenodd" clip-rule="evenodd" d="M43.2812 14.2601C43.145 14.3387 43.0611 14.484 43.0611 14.6412C43.0611 14.7984 43.1449 14.9436 43.2813 15.0225L43.9866 15.4296C44.2709 15.5938 44.6212 15.5936 44.9055 15.4295L45.6097 15.0229C45.7459 14.9443 45.8301 14.7989 45.8299 14.6418C45.8299 14.4842 45.7458 14.3391 45.6098 14.2605L44.9043 13.8535C44.6202 13.6892 44.2698 13.6893 43.9855 13.8535L43.2812 14.2601Z" fill="white"/>
<path fill-rule="evenodd" clip-rule="evenodd" d="M35.3984 9.68199C35.2622 9.76061 35.1783 9.90586 35.1783 10.0631C35.1783 10.2203 35.2621 10.3655 35.3984 10.4444L36.1038 10.8514C36.388 11.0157 36.7384 11.0155 37.0227 10.8514L37.7269 10.4448C37.8631 10.3662 37.9472 10.2208 37.9471 10.0636C37.9471 9.90605 37.863 9.76102 37.727 9.68235L37.0215 9.27534C36.7373 9.11106 36.387 9.11121 36.1027 9.27535L35.3984 9.68199Z" fill="white"/>
<path fill-rule="evenodd" clip-rule="evenodd" d="M27.0996 14.4339C26.9634 14.5126 26.8795 14.6578 26.8795 14.815C26.8795 14.9722 26.9633 15.1174 27.0996 15.1963L27.8049 15.6034C28.0892 15.7676 28.4396 15.7675 28.7239 15.6033L29.4281 15.1967C29.5643 15.1181 29.6484 14.9727 29.6483 14.8156C29.6483 14.658 29.5642 14.513 29.4281 14.4343L28.7227 14.0273C28.4385 13.863 28.0882 13.8632 27.8039 14.0273L27.0996 14.4339Z" fill="white"/>
<path fill-rule="evenodd" clip-rule="evenodd" d="M18.8222 19.2093C18.686 19.288 18.6021 19.4332 18.6021 19.5904C18.6021 19.7476 18.686 19.8928 18.8223 19.9717L19.5276 20.3788C19.8119 20.543 20.1622 20.5429 20.4465 20.3787L21.1507 19.9721C21.2869 19.8935 21.3711 19.7481 21.3709 19.591C21.371 19.4334 21.2868 19.2884 21.1508 19.2097L20.4454 18.8027C20.1612 18.6384 19.8108 18.6386 19.5265 18.8027L18.8222 19.2093Z" fill="white"/>
<path fill-rule="evenodd" clip-rule="evenodd" d="M11.5429 23.4173C11.4067 23.496 11.3228 23.6412 11.3228 23.7984C11.3228 23.9556 11.4067 24.1008 11.543 24.1797L12.2483 24.5868C12.5326 24.751 12.8829 24.7509 13.1672 24.5867L13.8714 24.1801C14.0076 24.1015 14.0918 23.9561 14.0917 23.799C14.0917 23.6414 14.0075 23.4964 13.8715 23.4177L13.1661 23.0107C12.8819 22.8464 12.5315 22.8466 12.2472 23.0107L11.5429 23.4173Z" fill="white"/>
</svg>
