<svg width="227" height="89" xmlns="http://www.w3.org/2000/svg" fill="none">
 <g>
  <title>Layer 1</title>
  <path d="m19.0149,80.5519c-1.2267,0 -2.237,-0.3968 -2.9587,-1.1904c-0.7216,-0.7937 -1.0824,-1.8759 -1.0824,-3.2828l0,-13.6001l8.2987,0l0,-7.4675l-8.2987,0l0,-8.1528l-9.81415,0l0,8.1528l-5.15965,0l0,7.4675l5.15965,0l0,13.7804c0,4.0043 1.08244,6.9985 3.28341,9.0187c2.20094,2.0202 5.26794,3.0302 9.23684,3.0302c1.4794,0 2.9226,-0.1803 4.3298,-0.5411c1.4072,-0.3607 2.5618,-0.8658 3.536,-1.5872l-2.5618,-6.8542c-1.0825,0.8297 -2.4175,1.2265 -4.0051,1.2265l0.0361,0z" fill="white" id="svg_1"/>
  <path d="m58.5883,55.3382c-2.0927,-1.0462 -4.4741,-1.5873 -7.1441,-1.5873c-2.8865,0 -5.4122,0.6132 -7.6493,1.8037c-1.1185,0.6133 -2.1288,1.3348 -2.9947,2.2005l0,-10.9305l-9.7059,0l0,40.9446l9.7059,0l0,-16.5943c0,-2.1284 0.3247,-3.8239 1.0463,-5.1226c0.6856,-1.2987 1.6237,-2.2727 2.8866,-2.922c1.2267,-0.6494 2.5978,-1.0101 4.1493,-1.0101c2.1649,0 3.8247,0.6493 5.0154,1.948c1.1906,1.2987 1.7679,3.2828 1.7679,5.9884l0,17.7126l9.706,0l0,-19.1917c0,-3.391 -0.6134,-6.2048 -1.8041,-8.3693c-1.2268,-2.1645 -2.8505,-3.7878 -4.9432,-4.87l-0.0361,0z" fill="white" id="svg_2"/>
  <path d="m83.8799,54.2568l-9.7059,0l0,33.5133l9.7059,0l0,-33.5133z" fill="white" id="svg_3"/>
  <path d="m147.956,62.8776c1.335,-0.7215 2.815,-1.0823 4.438,-1.0823c1.552,0 2.959,0.3608 4.222,1.0823c1.299,0.7215 2.381,1.8759 3.283,3.4631l7.469,-4.1125c-1.154,-2.7056 -3.067,-4.7979 -5.701,-6.2769c-2.634,-1.4791 -5.737,-2.2006 -9.273,-2.2006c-3.536,0 -6.819,0.7576 -9.633,2.2366c-2.815,1.4791 -5.016,3.5353 -6.603,6.0966c-1.588,2.5613 -2.382,5.5555 -2.382,8.9105c0,3.3549 0.794,6.2769 2.382,8.9104c1.587,2.6334 3.788,4.6536 6.603,6.1326c2.814,1.4791 6.025,2.2006 9.633,2.2006c3.608,0 6.603,-0.7576 9.273,-2.2366c2.634,-1.4791 4.547,-3.5714 5.701,-6.2409l-7.469,-4.1125c-0.902,1.6233 -2.02,2.7777 -3.283,3.5353c-1.299,0.7215 -2.706,1.0822 -4.222,1.0822c-1.623,0 -3.103,-0.3607 -4.438,-1.0822c-1.335,-0.7215 -2.381,-1.7677 -3.175,-3.1746c-0.794,-1.4069 -1.191,-3.0663 -1.191,-5.0143c0,-1.9481 0.397,-3.6075 1.191,-4.9783c0.794,-1.3709 1.84,-2.417 3.175,-3.1385z" fill="white" id="svg_4"/>
  <path d="m181.39,58.7318l0,-4.4732l-9.273,0l0,33.5133l9.706,0l0,-15.8368c0,-3.2106 0.83,-5.5555 2.417,-7.1067c1.624,-1.5512 3.789,-2.3087 6.531,-2.3087c0.325,0 0.686,0 1.047,0.0721c0.36,0.0361 0.721,0.1082 1.082,0.1804l0,-9.0547c-3.139,0 -5.845,0.6132 -8.046,1.8398c-1.407,0.7936 -2.562,1.8398 -3.5,3.1024l0.036,0.0721z" fill="white" id="svg_5"/>
  <path d="m225.988,73.0148c-0.722,-1.2265 -1.696,-2.1645 -2.923,-2.8499c-1.226,-0.6854 -2.525,-1.2265 -3.969,-1.5873c-1.407,-0.3607 -2.85,-0.6493 -4.293,-0.8658c-1.444,-0.2164 -2.779,-0.4329 -4.005,-0.6132c-1.227,-0.2165 -2.165,-0.5411 -2.923,-0.974c-0.758,-0.4329 -1.118,-1.0823 -1.118,-1.912c0,-0.9019 0.505,-1.6594 1.479,-2.2366c1.01,-0.5772 2.634,-0.8658 4.871,-0.8658c1.479,0 3.067,0.1804 4.69,0.5772c1.624,0.3607 3.248,1.0101 4.835,1.948l3.284,-6.9263c-1.624,-0.9019 -3.608,-1.6233 -5.954,-2.1645c-2.345,-0.505 -4.69,-0.7936 -6.999,-0.7936c-3.248,0 -5.99,0.469 -8.299,1.3708c-2.273,0.9019 -4.041,2.2006 -5.304,3.8239c-1.227,1.6234 -1.876,3.5353 -1.876,5.6277c0,1.9119 0.36,3.4631 1.082,4.6896c0.722,1.2266 1.696,2.1645 2.923,2.8499c1.226,0.6855 2.561,1.2266 4.005,1.5873c1.443,0.3608 2.886,0.6494 4.33,0.8658c1.443,0.2165 2.778,0.4329 3.968,0.6133c1.191,0.1803 2.129,0.505 2.887,0.9018c0.722,0.3969 1.082,0.9741 1.082,1.7677c0,0.974 -0.469,1.6955 -1.407,2.2366c-0.938,0.5411 -2.525,0.8297 -4.763,0.8297c-2.02,0 -4.113,-0.2886 -6.206,-0.9018c-2.092,-0.6133 -3.932,-1.3709 -5.52,-2.2727l-3.175,6.9263c1.587,1.0461 3.68,1.9119 6.278,2.5974c2.634,0.6854 5.34,1.0461 8.227,1.0461c3.355,0 6.242,-0.469 8.551,-1.3708c2.345,-0.9019 4.149,-2.1645 5.376,-3.7879c1.227,-1.5872 1.876,-3.427 1.876,-5.4472c0,-1.912 -0.361,-3.4632 -1.082,-4.6897l0.072,0z" fill="white" id="svg_6"/>
  <path d="m107.991,9.70405c6.639,0 12.015,5.37515 12.015,12.01285c0,6.6377 -5.376,12.0128 -12.015,12.0128c-6.639,0 -12.0156,-5.3751 -12.0156,-12.0128c0,-6.6377 5.3766,-12.01285 12.0156,-12.01285zm0,-9.70405c-12.0156,0 -21.7576,9.74013 -21.7576,21.753c0,12.0128 9.742,21.7529 21.7576,21.7529c12.015,0 21.757,-9.7401 21.757,-21.7529c0,-12.01287 -9.742,-21.753 -21.757,-21.753z" fill="#565FF0" id="svg_7"/>
  <path d="m79.018,50.4341c4.5102,0 8.1544,-3.6435 8.1544,-8.1528c0,-4.5093 -3.6442,-8.1529 -8.1544,-8.1529c-4.5102,0 -8.1544,3.6436 -8.1544,8.1529c0,4.5093 3.6442,8.1528 8.1544,8.1528z" fill="#565FF0" id="svg_8"/>
  <path d="m125.41,60.1748c-1.227,-2.1644 -2.851,-3.7878 -4.943,-4.87c-2.093,-1.0462 -4.475,-1.5873 -7.145,-1.5873c-2.886,0 -5.412,0.6132 -7.649,1.8037c-1.335,0.7215 -2.453,1.6234 -3.428,2.7417l0,-4.0404l-9.2725,0l0,33.4772l9.7055,0l0,-16.5943c0,-2.1284 0.325,-3.8239 1.011,-5.1226c0.685,-1.2987 1.623,-2.2727 2.886,-2.922c1.227,-0.6494 2.598,-1.0101 4.15,-1.0101c2.164,0 3.824,0.6493 5.015,1.948c1.191,1.2987 1.768,3.2828 1.768,5.9884l0,17.7126l9.706,0l0,-19.1917c0,-3.391 -0.614,-6.2048 -1.804,-8.3693l0,0.0361z" fill="white" id="svg_9"/>
 </g>

</svg>